<?xml version="1.0" encoding="UTF-8" standalone="no"?>
<!-- Created with Inkscape (http://www.inkscape.org/) -->

<svg
   version="1.1"
   id="svg1"
   width="807"
   height="827"
   viewBox="0 0 807 827"
   sodipodi:docname="favicon.svg"
   inkscape:version="1.4.2 (f4327f4, 2025-05-13)"
   xmlns:inkscape="http://www.inkscape.org/namespaces/inkscape"
   xmlns:sodipodi="http://sodipodi.sourceforge.net/DTD/sodipodi-0.dtd"
   xmlns="http://www.w3.org/2000/svg"
   xmlns:svg="http://www.w3.org/2000/svg">
  <defs
     id="defs1" />
  <sodipodi:namedview
     id="namedview1"
     pagecolor="#ffffff"
     bordercolor="#000000"
     borderopacity="0.25"
     inkscape:showpageshadow="2"
     inkscape:pageopacity="0.0"
     inkscape:pagecheckerboard="0"
     inkscape:deskcolor="#d1d1d1"
     inkscape:zoom="1.0338573"
     inkscape:cx="403.34386"
     inkscape:cy="413.5"
     inkscape:window-width="1920"
     inkscape:window-height="1057"
     inkscape:window-x="-8"
     inkscape:window-y="-8"
     inkscape:window-maximized="1"
     inkscape:current-layer="g1" />
  <g
     inkscape:groupmode="layer"
     inkscape:label="Image"
     id="g1">
    <g
       id="g2"
       transform="translate(0.96724725,-0.96725174)">
      <path
         style="fill:#ed5b3a"
         d="M 375,823.40898 C 318.35928,820.33037 268.52222,810.30867 225.62787,793.37186 136.46325,758.16526 69.246399,696.14527 33.983689,616.54461 19.573751,584.01618 10.402422,547.97285 7.0003391,510.5 5.728163,496.48739 5.7275839,465.89016 6.9992129,451 12.862998,382.3379 40.058459,318.58009 85.144583,267.79378 96.31324,255.21309 117.66549,235.33216 118.79524,236.4619 c 0.38103,0.38104 -1.32952,2.51054 -3.80123,4.73222 -16.291559,14.64362 -24.040238,22.1672 -23.744424,23.05464 0.993035,2.9791 26.677024,9.18239 49.250414,11.89512 14.52933,1.74605 56.73582,1.75438 71,0.014 25.81912,-3.15017 53.41113,-9.35759 77.27272,-17.38415 7.32123,-2.46272 12.60076,-3.75419 13.08578,-3.20103 0.44718,0.51001 1.82452,5.87564 3.06077,11.92363 1.23624,6.04799 4.2586,16.62299 6.71635,23.5 16.46563,46.07224 46.05135,82.10765 83.66189,101.90021 9.40806,4.951 12.20919,5.09099 22.48475,1.12371 26.34875,-10.17295 54.97267,-37.55969 73.25773,-70.09141 9.50517,-16.91106 18.19781,-42.56377 20.38677,-60.1631 0.39227,-3.15383 1.09396,-5.96955 1.55931,-6.25715 0.46535,-0.28761 2.12136,-0.0351 3.68001,0.56101 7.23091,2.7657 40.16863,11.22443 52.31453,13.43487 41.20508,7.49896 75.42488,8.21128 115.51937,2.40467 12.16006,-1.76106 25.73501,-5.2624 30.29365,-7.81354 1.88306,-1.05382 -2.08066,-5.5462 -15.79363,-17.90011 -9.92212,-8.93876 -13.62489,-12.93358 -11.18604,-12.06832 1.89761,0.67325 21.52875,19.09856 29.10898,27.32099 20.1589,21.86678 36.92917,46.32501 50.08941,73.05182 18.87049,38.32358 28.56548,73.75666 32.0729,117.2194 1.46061,18.0994 0.67251,53.7829 -1.57428,71.2806 -7.64304,59.52275 -31.15353,115.47947 -67.73565,161.21591 -10.90605,13.63519 -37.56627,40.24155 -51.27532,51.17174 -25.35592,20.21621 -60.66274,40.98017 -90,52.92904 -38.91357,15.84925 -83.18292,26.68715 -127.5,31.21422 -14.65566,1.4971 -70.5514,2.71776 -86,1.87807 z m 32.05087,-185.01673 c 6.65726,-1.97699 9.99758,-5.31513 38.82176,-38.79636 C 457.21768,586.41785 477.75,562.72812 491.5,546.95204 544.60313,486.02412 556.85298,471.45015 559.12232,466.5 c 2.59611,-5.66295 2.52112,-16.53939 -0.15212,-22.06156 -6.79672,-14.04015 -22.54442,-19.80325 -36.03782,-13.18856 -4.53774,2.22448 -7.8157,5.42872 -19.90422,19.45658 -7.95952,9.23645 -30.23452,34.96978 -49.5,57.18518 -19.26549,22.2154 -39.23014,45.2779 -44.3659,51.25 -5.13575,5.9721 -9.933,10.85836 -10.66054,10.85836 -1.13931,0 -12.78707,-12.88055 -52.12405,-57.64078 -25.24049,-28.72031 -27.86414,-31.41093 -33.18839,-34.03547 -7.04924,-3.47485 -16.81821,-3.64998 -23.48827,-0.42106 -5.23705,2.53521 -12.21027,9.67855 -14.27727,14.62558 -2.03295,4.86553 -1.79419,16.05954 0.4478,20.99496 1.73479,3.81888 13.85782,18.3293 40.5009,48.47677 6.5619,7.425 19.66163,22.275 29.11049,33 29.30577,33.26371 34.95783,39.3533 38.38195,41.35309 6.55088,3.82592 14.74315,4.54642 23.18599,2.03916 z"
         id="path4" />
      <path
         style="fill:#61b04d"
         d="m 394.31186,353.36617 c -8.83382,-5.22586 -25.68921,-19.69946 -33.69115,-28.93035 -21.24102,-24.50322 -34.6672,-52.85238 -42.59367,-89.93582 -1.17561,-5.5 -2.45852,-10.32339 -2.85091,-10.71865 -0.39239,-0.39526 -4.90568,0.62949 -10.02952,2.27723 -26.42923,8.49917 -57.6322,14.63746 -86.64661,17.04524 -16.7802,1.39252 -50.19396,0.60108 -66.0209,-1.56377 -16.72835,-2.28815 -36.53296,-6.19391 -37.79223,-7.45318 -3.92902,-3.92902 24.45672,-35.2694 45.82964,-50.60001 10.3021,-7.38961 32.1939,-18.95554 44.39083,-23.45269 18.83656,-6.94527 44.44144,-12.01187 60.89388,-12.04948 10.39645,-0.0238 10.53643,-0.42405 3.72944,-10.6651 -9.08119,-13.66257 -22.48875,-31.0553 -35.06742,-45.490638 C 228.15846,84.593564 223,78.072118 223,77.33685 c 0,-1.901245 29.40323,-1.798131 44.19878,0.155001 37.53071,4.954354 70.22751,19.536029 97.64234,43.545199 5.13762,4.49939 9.67267,7.79421 10.07788,7.32183 0.40521,-0.47239 1.91456,-6.93388 3.3541,-14.35888 5.02568,-25.921864 12.63008,-48.492934 24.76281,-73.5 7.99494,-16.478563 15.63419,-28.383924 20.68455,-32.2357653 3.12898,-2.3864347 4.47624,-2.7459953 9.85749,-2.6307828 14.48606,0.3101469 32.09377,14.3261351 34.00455,27.0681161 0.90422,6.029809 -0.62138,10.643075 -6.9964,21.156446 -8.19374,13.51269 -15.03985,26.772055 -18.91908,36.641986 -5.21025,13.25642 -10.8052,32.48532 -10.46439,35.96436 L 431.5,129.5 l 7.78073,-7.22342 c 20.03296,-18.59805 49.92732,-33.249706 81.66091,-40.023169 11.63825,-2.484158 14.3534,-2.683223 37.05836,-2.716983 19.46914,-0.02895 26.44902,0.331465 33.99162,1.755192 5.22039,0.985391 9.84348,2.143479 10.27353,2.573529 0.43005,0.430051 -8.60115,10.198822 -20.06934,21.708381 -21.23142,21.30802 -35.4555,37.74665 -34.95627,40.39863 0.19694,1.0462 2.73407,1.802 8.76879,2.61217 40.19309,5.39596 77.67179,22.2749 105.99944,47.73798 C 674.94848,207.95442 693,229.09891 693,232.62478 c 0,2.0552 -3.04066,3.03255 -16.5,5.30357 -43.64297,7.36394 -79.66492,7.96418 -119,1.9829 -16.79052,-2.55316 -40.74329,-8.09136 -56.2984,-13.01693 C 494.43748,224.75245 488.25856,223 487.47065,223 c -1.53141,0 -1.82296,0.91217 -3.5158,11 -4.33828,25.85218 -15.05373,53.0393 -29.75737,75.5 -10.86065,16.5903 -33.75516,38.05912 -48.89782,45.85283 -1.76019,0.90594 -3.57043,1.64717 -4.02275,1.64717 -0.45233,0 -3.5866,-1.63522 -6.96505,-3.63383 z"
         id="path3" />
      <path
         style="fill:#d03b2c"
         d="M 395.29751,392.89656 C 357.68697,373.104 328.10125,337.06859 311.63562,290.99635 c -2.45775,-6.87701 -5.48011,-17.45201 -6.71635,-23.5 -1.23625,-6.04799 -2.61359,-11.41362 -3.06077,-11.92363 -0.48502,-0.55316 -5.76455,0.73831 -13.08578,3.20103 -23.86159,8.02656 -51.4536,14.23398 -77.27272,17.38415 -14.26418,1.74036 -56.47067,1.73203 -71,-0.014 -22.57339,-2.71273 -48.257379,-8.91602 -49.250414,-11.89512 -0.187293,-0.56188 4.264288,-5.23521 9.892404,-10.38518 5.62811,-5.14997 12.23682,-11.28011 14.68601,-13.62255 l 4.45309,-4.25896 10.29634,1.98699 c 27.3615,5.28022 61.8785,7.29605 87.92257,5.13476 29.01441,-2.40778 60.21738,-8.54607 86.64661,-17.04524 5.12384,-1.64774 9.63713,-2.67249 10.02952,-2.27723 0.39239,0.39526 1.6753,5.21865 2.85091,10.71865 10.87895,50.8964 33.09081,87.49507 69.27578,114.1463 8.14677,6.00031 13.3584,8.596 15.74086,7.83984 1.06147,-0.3369 6.09838,-3.34533 11.19313,-6.68541 12.74525,-8.35567 31.29478,-27.06305 39.96067,-40.30073 14.70364,-22.4607 25.41909,-49.64782 29.75737,-75.5 1.69284,-10.08783 1.98439,-11 3.5158,-11 0.78791,0 6.96683,1.75245 13.73095,3.89432 56.53142,17.90085 115.59061,21.6512 174.58524,11.08646 l 10.28683,-1.84217 6.71317,6.1807 c 17.53912,16.14796 23.75354,22.79391 22.15349,23.69181 -4.68229,2.62754 -18.1172,6.11336 -30.44035,7.89804 -40.09449,5.80661 -74.31429,5.09429 -115.51937,-2.40467 -12.1459,-2.21044 -45.08362,-10.66917 -52.31453,-13.43487 -1.55865,-0.59616 -3.21466,-0.84862 -3.68001,-0.56101 -0.46535,0.2876 -1.16704,3.10332 -1.55931,6.25715 -1.14848,9.23385 -5.84745,26.88683 -10.27825,38.61309 -15.10956,39.98799 -50.5852,78.98503 -83.36625,91.64142 -10.27556,3.96728 -13.07669,3.82729 -22.48475,-1.12371 z"
         id="path2" />
    </g>
  </g>
</svg>
